<?xml version="1.0" standalone="no"?>
<!DOCTYPE svg PUBLIC "-//W3C//DTD SVG 20010904//EN"
 "http://www.w3.org/TR/2001/REC-SVG-20010904/DTD/svg10.dtd">
<svg version="1.0" xmlns="http://www.w3.org/2000/svg"
 width="240.000000pt" height="240.000000pt" viewBox="0 0 240.000000 240.000000"
 preserveAspectRatio="xMidYMid meet">
<metadata>
Created by potrace 1.11, written by Peter Selinger 2001-2013
</metadata>
<g transform="translate(0.000000,240.000000) scale(0.100000,-0.100000)"
fill="#000000" stroke="none">
<path d="M105 2357 c-22 -12 -50 -40 -62 -62 l-23 -40 0 -1050 c0 -1003 1
-1052 19 -1091 10 -23 34 -52 52 -65 l34 -24 1062 -2 c805 -2 1069 0 1090 9
41 17 63 38 84 80 18 35 19 79 19 1085 0 1002 -1 1050 -19 1089 -10 23 -34 52
-52 65 l-34 24 -1065 2 -1065 3 -40 -23z m2147 -104 c17 -15 18 -61 18 -1051
0 -949 -1 -1037 -17 -1054 -15 -17 -61 -18 -1051 -18 -949 0 -1037 1 -1054 17
-17 15 -18 61 -18 1051 0 949 1 1037 17 1054 15 17 61 18 1051 18 949 0 1037
-1 1054 -17z"/>
<path d="M266 2154 c-23 -22 -20 -71 3 -84 13 -7 325 -10 940 -10 l920 0 20
21 c16 17 18 26 10 47 -6 15 -16 30 -22 34 -7 4 -427 8 -934 8 -825 0 -923 -2
-937 -16z"/>
<path d="M268 1929 c-22 -13 -24 -62 -2 -83 14 -14 86 -16 644 -16 l629 0 20
26 c21 27 19 51 -7 72 -20 16 -1257 17 -1284 1z"/>
<path d="M1685 1760 c-55 -32 -70 -62 -47 -98 13 -20 12 -27 -9 -67 -21 -39
-28 -45 -56 -45 -45 0 -63 -22 -63 -80 0 -76 12 -98 57 -102 26 -2 41 -9 48
-24 6 -12 17 -29 24 -38 11 -13 11 -22 -3 -56 -15 -38 -15 -40 7 -61 27 -25
91 -59 112 -59 9 0 24 13 33 30 15 27 22 30 67 30 44 0 53 -4 76 -31 30 -37
49 -36 116 8 52 33 57 44 37 87 -16 32 -15 34 11 74 23 36 33 42 62 42 42 0
57 31 50 108 -4 59 -15 72 -64 72 -18 0 -33 5 -33 11 0 6 -9 24 -21 40 -19 27
-20 33 -8 62 21 50 20 55 -29 87 -65 43 -91 48 -113 21 -10 -12 -19 -26 -21
-32 -2 -6 -26 -12 -53 -13 -46 -1 -52 2 -73 31 -28 40 -43 41 -107 3z m234
-204 c31 -17 51 -54 51 -96 0 -68 -45 -110 -117 -110 -78 1 -127 86 -92 163
23 51 101 72 158 43z"/>
<path d="M800 1688 c-73 -11 -94 -33 -96 -101 -1 -28 -3 -60 -3 -69 -1 -10
-12 -20 -26 -24 -14 -3 -52 -24 -85 -45 l-60 -39 -60 31 c-41 22 -66 30 -84
25 -45 -11 -176 -205 -176 -260 0 -27 25 -52 88 -86 l46 -25 1 -102 1 -102
-40 -18 c-58 -26 -96 -61 -96 -88 0 -47 132 -254 163 -256 7 0 21 -2 32 -4 11
-2 43 10 72 26 l53 31 61 -41 c34 -23 72 -44 85 -47 13 -3 24 -9 25 -13 0 -3
1 -34 3 -68 2 -42 8 -69 20 -81 43 -49 278 -49 322 -1 11 13 18 39 20 77 1 31
3 62 3 69 1 6 15 16 31 22 17 5 54 26 84 46 l54 36 59 -31 c78 -41 101 -35
159 39 52 65 104 164 104 197 0 26 -39 61 -96 87 l-41 18 0 103 0 103 53 26
c71 35 91 65 76 116 -26 84 -141 231 -182 231 -12 0 -47 -14 -77 -31 l-55 -32
-41 29 c-23 16 -61 38 -84 48 -30 13 -43 25 -44 40 -5 113 -6 120 -33 143 -15
13 -39 23 -54 24 -15 0 -49 2 -77 3 -27 1 -75 -2 -105 -6z m151 -478 c84 -24
159 -126 159 -217 0 -49 -28 -123 -58 -156 -45 -50 -175 -80 -241 -56 -49 19
-97 59 -122 102 -50 87 -24 233 52 289 57 43 139 58 210 38z"/>
<path d="M1703 835 c-28 -12 -57 -33 -66 -45 -14 -21 -15 -26 0 -53 14 -28 14
-32 -8 -71 -26 -48 -38 -57 -61 -50 -32 10 -58 -31 -58 -91 0 -61 26 -101 60
-92 23 6 31 0 59 -46 22 -36 22 -40 8 -69 -20 -42 -10 -60 54 -97 58 -33 79
-31 102 8 14 24 22 27 67 27 45 -1 54 -5 68 -28 22 -37 49 -38 105 -5 60 37
70 55 51 93 -15 27 -14 32 7 72 13 23 26 43 29 43 3 1 17 2 31 3 48 3 58 21
55 98 -2 75 -10 86 -56 83 -26 -2 -34 5 -56 42 -24 42 -25 46 -10 76 20 42 7
63 -63 99 -57 30 -80 26 -100 -18 -8 -19 -17 -22 -62 -20 -44 1 -53 5 -65 28
-19 37 -35 39 -91 13z m224 -216 c41 -25 55 -97 28 -149 -38 -74 -152 -74
-190 0 -43 83 16 174 107 164 20 -2 45 -8 55 -15z"/>
</g>
</svg>
